<mxfile host="app.diagrams.net" agent="Mozilla/5.0 (Windows NT 10.0; Win64; x64) AppleWebKit/537.36 (KHTML, like Gecko) Chrome/131.0.0.0 Safari/537.36" version="26.0.2">
  <diagram name="Page-1" id="66CrbhdXWXg4WKB-gLQY">
    <mxGraphModel dx="1885" dy="528" grid="1" gridSize="10" guides="1" tooltips="1" connect="1" arrows="1" fold="1" page="1" pageScale="1" pageWidth="850" pageHeight="1100" math="0" shadow="0">
      <root>
        <mxCell id="0" />
        <mxCell id="1" parent="0" />
        <mxCell id="TE1wdWIpFC8KjKA51ehA-1" value="1" style="rounded=0;whiteSpace=wrap;html=1;" parent="1" vertex="1">
          <mxGeometry x="-320" y="1400" width="40" height="40" as="geometry" />
        </mxCell>
        <mxCell id="TE1wdWIpFC8KjKA51ehA-2" value="2" style="rounded=0;whiteSpace=wrap;html=1;" parent="1" vertex="1">
          <mxGeometry x="-320" y="1440" width="40" height="40" as="geometry" />
        </mxCell>
        <mxCell id="TE1wdWIpFC8KjKA51ehA-3" value="3" style="rounded=0;whiteSpace=wrap;html=1;" parent="1" vertex="1">
          <mxGeometry x="-320" y="1480" width="40" height="40" as="geometry" />
        </mxCell>
        <mxCell id="TE1wdWIpFC8KjKA51ehA-4" value="4" style="rounded=0;whiteSpace=wrap;html=1;" parent="1" vertex="1">
          <mxGeometry x="-320" y="1520" width="40" height="40" as="geometry" />
        </mxCell>
        <mxCell id="TE1wdWIpFC8KjKA51ehA-5" value="5" style="rounded=0;whiteSpace=wrap;html=1;" parent="1" vertex="1">
          <mxGeometry x="-320" y="1560" width="40" height="40" as="geometry" />
        </mxCell>
        <mxCell id="TE1wdWIpFC8KjKA51ehA-6" value="6" style="rounded=0;whiteSpace=wrap;html=1;" parent="1" vertex="1">
          <mxGeometry x="-320" y="1600" width="40" height="40" as="geometry" />
        </mxCell>
        <mxCell id="TE1wdWIpFC8KjKA51ehA-7" value="7" style="rounded=0;whiteSpace=wrap;html=1;" parent="1" vertex="1">
          <mxGeometry x="-320" y="1640" width="40" height="40" as="geometry" />
        </mxCell>
        <mxCell id="TE1wdWIpFC8KjKA51ehA-8" value="8" style="rounded=0;whiteSpace=wrap;html=1;" parent="1" vertex="1">
          <mxGeometry x="-320" y="1680" width="40" height="40" as="geometry" />
        </mxCell>
        <mxCell id="TE1wdWIpFC8KjKA51ehA-9" value="9" style="rounded=0;whiteSpace=wrap;html=1;" parent="1" vertex="1">
          <mxGeometry x="-320" y="1720" width="40" height="40" as="geometry" />
        </mxCell>
        <mxCell id="TE1wdWIpFC8KjKA51ehA-10" value="" style="endArrow=classic;html=1;rounded=0;entryX=0;entryY=0.25;entryDx=0;entryDy=0;" parent="1" target="TE1wdWIpFC8KjKA51ehA-12" edge="1">
          <mxGeometry width="50" height="50" relative="1" as="geometry">
            <mxPoint x="-280" y="1410" as="sourcePoint" />
            <mxPoint x="-115" y="1455" as="targetPoint" />
            <Array as="points">
              <mxPoint x="-260" y="1410" />
              <mxPoint x="-260" y="1430" />
            </Array>
          </mxGeometry>
        </mxCell>
        <mxCell id="TE1wdWIpFC8KjKA51ehA-11" value="" style="endArrow=classic;html=1;rounded=0;exitX=1;exitY=0.5;exitDx=0;exitDy=0;entryX=0;entryY=0.75;entryDx=0;entryDy=0;" parent="1" target="TE1wdWIpFC8KjKA51ehA-12" edge="1">
          <mxGeometry width="50" height="50" relative="1" as="geometry">
            <mxPoint x="-280" y="1470" as="sourcePoint" />
            <mxPoint x="80" y="1530" as="targetPoint" />
            <Array as="points">
              <mxPoint x="-260" y="1470" />
              <mxPoint x="-260" y="1450" />
            </Array>
          </mxGeometry>
        </mxCell>
        <mxCell id="TE1wdWIpFC8KjKA51ehA-12" value="+" style="rounded=0;whiteSpace=wrap;html=1;" parent="1" vertex="1">
          <mxGeometry x="-240" y="1420" width="50" height="40" as="geometry" />
        </mxCell>
        <mxCell id="TE1wdWIpFC8KjKA51ehA-13" value="" style="triangle;whiteSpace=wrap;html=1;direction=north;" parent="1" vertex="1">
          <mxGeometry x="-220" y="1450" width="10" height="10" as="geometry" />
        </mxCell>
        <mxCell id="TE1wdWIpFC8KjKA51ehA-14" value="" style="endArrow=classic;html=1;rounded=0;entryX=0;entryY=0.25;entryDx=0;entryDy=0;" parent="1" target="TE1wdWIpFC8KjKA51ehA-16" edge="1">
          <mxGeometry width="50" height="50" relative="1" as="geometry">
            <mxPoint x="-280" y="1490" as="sourcePoint" />
            <mxPoint x="-115" y="1535" as="targetPoint" />
            <Array as="points">
              <mxPoint x="-260" y="1490" />
              <mxPoint x="-260" y="1510" />
            </Array>
          </mxGeometry>
        </mxCell>
        <mxCell id="TE1wdWIpFC8KjKA51ehA-15" value="" style="endArrow=classic;html=1;rounded=0;exitX=1;exitY=0.5;exitDx=0;exitDy=0;entryX=0;entryY=0.75;entryDx=0;entryDy=0;" parent="1" target="TE1wdWIpFC8KjKA51ehA-16" edge="1">
          <mxGeometry width="50" height="50" relative="1" as="geometry">
            <mxPoint x="-280" y="1550" as="sourcePoint" />
            <mxPoint x="80" y="1610" as="targetPoint" />
            <Array as="points">
              <mxPoint x="-260" y="1550" />
              <mxPoint x="-260" y="1530" />
            </Array>
          </mxGeometry>
        </mxCell>
        <mxCell id="TE1wdWIpFC8KjKA51ehA-16" value="+" style="rounded=0;whiteSpace=wrap;html=1;" parent="1" vertex="1">
          <mxGeometry x="-240" y="1500" width="50" height="40" as="geometry" />
        </mxCell>
        <mxCell id="TE1wdWIpFC8KjKA51ehA-17" value="" style="triangle;whiteSpace=wrap;html=1;direction=north;" parent="1" vertex="1">
          <mxGeometry x="-220" y="1530" width="10" height="10" as="geometry" />
        </mxCell>
        <mxCell id="TE1wdWIpFC8KjKA51ehA-18" value="" style="endArrow=classic;html=1;rounded=0;entryX=0;entryY=0.25;entryDx=0;entryDy=0;" parent="1" target="TE1wdWIpFC8KjKA51ehA-20" edge="1">
          <mxGeometry width="50" height="50" relative="1" as="geometry">
            <mxPoint x="-280" y="1570" as="sourcePoint" />
            <mxPoint x="-115" y="1615" as="targetPoint" />
            <Array as="points">
              <mxPoint x="-260" y="1570" />
              <mxPoint x="-260" y="1590" />
            </Array>
          </mxGeometry>
        </mxCell>
        <mxCell id="TE1wdWIpFC8KjKA51ehA-19" value="" style="endArrow=classic;html=1;rounded=0;exitX=1;exitY=0.5;exitDx=0;exitDy=0;entryX=0;entryY=0.75;entryDx=0;entryDy=0;" parent="1" target="TE1wdWIpFC8KjKA51ehA-20" edge="1">
          <mxGeometry width="50" height="50" relative="1" as="geometry">
            <mxPoint x="-280" y="1630" as="sourcePoint" />
            <mxPoint x="80" y="1690" as="targetPoint" />
            <Array as="points">
              <mxPoint x="-260" y="1630" />
              <mxPoint x="-260" y="1610" />
            </Array>
          </mxGeometry>
        </mxCell>
        <mxCell id="TE1wdWIpFC8KjKA51ehA-20" value="+" style="rounded=0;whiteSpace=wrap;html=1;" parent="1" vertex="1">
          <mxGeometry x="-240" y="1580" width="50" height="40" as="geometry" />
        </mxCell>
        <mxCell id="TE1wdWIpFC8KjKA51ehA-21" value="" style="triangle;whiteSpace=wrap;html=1;direction=north;" parent="1" vertex="1">
          <mxGeometry x="-220" y="1610" width="10" height="10" as="geometry" />
        </mxCell>
        <mxCell id="TE1wdWIpFC8KjKA51ehA-22" value="" style="endArrow=classic;html=1;rounded=0;entryX=0;entryY=0.25;entryDx=0;entryDy=0;" parent="1" target="TE1wdWIpFC8KjKA51ehA-25" edge="1">
          <mxGeometry width="50" height="50" relative="1" as="geometry">
            <mxPoint x="-280" y="1650" as="sourcePoint" />
            <mxPoint x="-115" y="1695" as="targetPoint" />
            <Array as="points">
              <mxPoint x="-260" y="1650" />
              <mxPoint x="-260" y="1670" />
            </Array>
          </mxGeometry>
        </mxCell>
        <mxCell id="TE1wdWIpFC8KjKA51ehA-23" value="" style="endArrow=classic;html=1;rounded=0;exitX=1;exitY=0.5;exitDx=0;exitDy=0;entryX=0;entryY=0.75;entryDx=0;entryDy=0;" parent="1" target="TE1wdWIpFC8KjKA51ehA-25" edge="1">
          <mxGeometry width="50" height="50" relative="1" as="geometry">
            <mxPoint x="-280" y="1710" as="sourcePoint" />
            <mxPoint x="80" y="1770" as="targetPoint" />
            <Array as="points">
              <mxPoint x="-260" y="1710" />
              <mxPoint x="-260" y="1690" />
            </Array>
          </mxGeometry>
        </mxCell>
        <mxCell id="TE1wdWIpFC8KjKA51ehA-24" value="" style="group" parent="1" vertex="1" connectable="0">
          <mxGeometry x="-240" y="1660" width="50" height="40" as="geometry" />
        </mxCell>
        <mxCell id="TE1wdWIpFC8KjKA51ehA-25" value="+" style="rounded=0;whiteSpace=wrap;html=1;" parent="TE1wdWIpFC8KjKA51ehA-24" vertex="1">
          <mxGeometry width="50" height="40" as="geometry" />
        </mxCell>
        <mxCell id="TE1wdWIpFC8KjKA51ehA-26" value="" style="triangle;whiteSpace=wrap;html=1;direction=north;" parent="TE1wdWIpFC8KjKA51ehA-24" vertex="1">
          <mxGeometry x="20" y="30" width="10" height="10" as="geometry" />
        </mxCell>
        <mxCell id="TE1wdWIpFC8KjKA51ehA-27" value="" style="endArrow=classic;html=1;rounded=0;entryX=0;entryY=0.25;entryDx=0;entryDy=0;" parent="1" target="TE1wdWIpFC8KjKA51ehA-29" edge="1">
          <mxGeometry width="50" height="50" relative="1" as="geometry">
            <mxPoint x="-190" y="1440" as="sourcePoint" />
            <mxPoint x="-25" y="1485" as="targetPoint" />
            <Array as="points">
              <mxPoint x="-170" y="1440" />
              <mxPoint x="-170" y="1470" />
            </Array>
          </mxGeometry>
        </mxCell>
        <mxCell id="TE1wdWIpFC8KjKA51ehA-28" value="" style="endArrow=classic;html=1;rounded=0;exitX=1;exitY=0.5;exitDx=0;exitDy=0;entryX=0;entryY=0.75;entryDx=0;entryDy=0;" parent="1" target="TE1wdWIpFC8KjKA51ehA-29" edge="1">
          <mxGeometry width="50" height="50" relative="1" as="geometry">
            <mxPoint x="-190" y="1520" as="sourcePoint" />
            <mxPoint x="170" y="1560" as="targetPoint" />
            <Array as="points">
              <mxPoint x="-170" y="1520" />
              <mxPoint x="-170" y="1490" />
            </Array>
          </mxGeometry>
        </mxCell>
        <mxCell id="TE1wdWIpFC8KjKA51ehA-29" value="+" style="rounded=0;whiteSpace=wrap;html=1;" parent="1" vertex="1">
          <mxGeometry x="-150" y="1460" width="50" height="40" as="geometry" />
        </mxCell>
        <mxCell id="TE1wdWIpFC8KjKA51ehA-30" value="" style="triangle;whiteSpace=wrap;html=1;direction=north;" parent="1" vertex="1">
          <mxGeometry x="-130" y="1490" width="10" height="10" as="geometry" />
        </mxCell>
        <mxCell id="TE1wdWIpFC8KjKA51ehA-31" value="" style="endArrow=classic;html=1;rounded=0;entryX=0;entryY=0.25;entryDx=0;entryDy=0;" parent="1" target="TE1wdWIpFC8KjKA51ehA-33" edge="1">
          <mxGeometry width="50" height="50" relative="1" as="geometry">
            <mxPoint x="-190" y="1600" as="sourcePoint" />
            <mxPoint x="-25" y="1645" as="targetPoint" />
            <Array as="points">
              <mxPoint x="-170" y="1600" />
              <mxPoint x="-170" y="1630" />
            </Array>
          </mxGeometry>
        </mxCell>
        <mxCell id="TE1wdWIpFC8KjKA51ehA-32" value="" style="endArrow=classic;html=1;rounded=0;exitX=1;exitY=0.5;exitDx=0;exitDy=0;entryX=0;entryY=0.75;entryDx=0;entryDy=0;" parent="1" target="TE1wdWIpFC8KjKA51ehA-33" edge="1">
          <mxGeometry width="50" height="50" relative="1" as="geometry">
            <mxPoint x="-190" y="1680" as="sourcePoint" />
            <mxPoint x="170" y="1720" as="targetPoint" />
            <Array as="points">
              <mxPoint x="-170" y="1680" />
              <mxPoint x="-170" y="1650" />
            </Array>
          </mxGeometry>
        </mxCell>
        <mxCell id="TE1wdWIpFC8KjKA51ehA-33" value="+" style="rounded=0;whiteSpace=wrap;html=1;" parent="1" vertex="1">
          <mxGeometry x="-150" y="1620" width="50" height="40" as="geometry" />
        </mxCell>
        <mxCell id="TE1wdWIpFC8KjKA51ehA-34" value="" style="triangle;whiteSpace=wrap;html=1;direction=north;" parent="1" vertex="1">
          <mxGeometry x="-130" y="1650" width="10" height="10" as="geometry" />
        </mxCell>
        <mxCell id="TE1wdWIpFC8KjKA51ehA-41" value="+" style="rounded=0;whiteSpace=wrap;html=1;" parent="1" vertex="1">
          <mxGeometry x="-60" y="1540" width="50" height="40" as="geometry" />
        </mxCell>
        <mxCell id="TE1wdWIpFC8KjKA51ehA-42" value="" style="triangle;whiteSpace=wrap;html=1;direction=north;" parent="1" vertex="1">
          <mxGeometry x="-40" y="1570" width="10" height="10" as="geometry" />
        </mxCell>
        <mxCell id="TE1wdWIpFC8KjKA51ehA-43" value="" style="endArrow=classic;html=1;rounded=0;exitX=1;exitY=0.5;exitDx=0;exitDy=0;entryX=0;entryY=0.25;entryDx=0;entryDy=0;" parent="1" source="TE1wdWIpFC8KjKA51ehA-29" target="TE1wdWIpFC8KjKA51ehA-41" edge="1">
          <mxGeometry width="50" height="50" relative="1" as="geometry">
            <mxPoint x="-170" y="1600" as="sourcePoint" />
            <mxPoint x="-120" y="1550" as="targetPoint" />
            <Array as="points">
              <mxPoint x="-80" y="1480" />
              <mxPoint x="-80" y="1550" />
            </Array>
          </mxGeometry>
        </mxCell>
        <mxCell id="TE1wdWIpFC8KjKA51ehA-44" value="" style="endArrow=classic;html=1;rounded=0;entryX=0;entryY=0.75;entryDx=0;entryDy=0;exitX=1;exitY=0.5;exitDx=0;exitDy=0;" parent="1" source="TE1wdWIpFC8KjKA51ehA-33" target="TE1wdWIpFC8KjKA51ehA-41" edge="1">
          <mxGeometry width="50" height="50" relative="1" as="geometry">
            <mxPoint x="-170" y="1600" as="sourcePoint" />
            <mxPoint x="-120" y="1550" as="targetPoint" />
            <Array as="points">
              <mxPoint x="-80" y="1640" />
              <mxPoint x="-80" y="1570" />
            </Array>
          </mxGeometry>
        </mxCell>
        <mxCell id="TE1wdWIpFC8KjKA51ehA-92" value="10" style="rounded=0;whiteSpace=wrap;html=1;" parent="1" vertex="1">
          <mxGeometry x="-320" y="1760" width="40" height="40" as="geometry" />
        </mxCell>
        <mxCell id="TE1wdWIpFC8KjKA51ehA-93" value="11" style="rounded=0;whiteSpace=wrap;html=1;" parent="1" vertex="1">
          <mxGeometry x="-320" y="1800" width="40" height="40" as="geometry" />
        </mxCell>
        <mxCell id="TE1wdWIpFC8KjKA51ehA-94" value="12" style="rounded=0;whiteSpace=wrap;html=1;" parent="1" vertex="1">
          <mxGeometry x="-320" y="1840" width="40" height="40" as="geometry" />
        </mxCell>
        <mxCell id="TE1wdWIpFC8KjKA51ehA-95" value="13" style="rounded=0;whiteSpace=wrap;html=1;" parent="1" vertex="1">
          <mxGeometry x="-320" y="1880" width="40" height="40" as="geometry" />
        </mxCell>
        <mxCell id="TE1wdWIpFC8KjKA51ehA-96" value="" style="endArrow=classic;html=1;rounded=0;entryX=0;entryY=0.25;entryDx=0;entryDy=0;" parent="1" target="TE1wdWIpFC8KjKA51ehA-99" edge="1">
          <mxGeometry width="50" height="50" relative="1" as="geometry">
            <mxPoint x="-280" y="1730" as="sourcePoint" />
            <mxPoint x="-115" y="1775" as="targetPoint" />
            <Array as="points">
              <mxPoint x="-260" y="1730" />
              <mxPoint x="-260" y="1750" />
            </Array>
          </mxGeometry>
        </mxCell>
        <mxCell id="TE1wdWIpFC8KjKA51ehA-97" value="" style="endArrow=classic;html=1;rounded=0;exitX=1;exitY=0.5;exitDx=0;exitDy=0;entryX=0;entryY=0.75;entryDx=0;entryDy=0;" parent="1" target="TE1wdWIpFC8KjKA51ehA-99" edge="1">
          <mxGeometry width="50" height="50" relative="1" as="geometry">
            <mxPoint x="-280" y="1790" as="sourcePoint" />
            <mxPoint x="80" y="1850" as="targetPoint" />
            <Array as="points">
              <mxPoint x="-260" y="1790" />
              <mxPoint x="-260" y="1770" />
            </Array>
          </mxGeometry>
        </mxCell>
        <mxCell id="TE1wdWIpFC8KjKA51ehA-98" value="" style="group" parent="1" vertex="1" connectable="0">
          <mxGeometry x="-240" y="1740" width="50" height="40" as="geometry" />
        </mxCell>
        <mxCell id="TE1wdWIpFC8KjKA51ehA-99" value="+" style="rounded=0;whiteSpace=wrap;html=1;" parent="TE1wdWIpFC8KjKA51ehA-98" vertex="1">
          <mxGeometry width="50" height="40" as="geometry" />
        </mxCell>
        <mxCell id="TE1wdWIpFC8KjKA51ehA-100" value="" style="triangle;whiteSpace=wrap;html=1;direction=north;" parent="TE1wdWIpFC8KjKA51ehA-98" vertex="1">
          <mxGeometry x="20" y="30" width="10" height="10" as="geometry" />
        </mxCell>
        <mxCell id="TE1wdWIpFC8KjKA51ehA-101" value="" style="endArrow=classic;html=1;rounded=0;entryX=0;entryY=0.25;entryDx=0;entryDy=0;" parent="1" target="TE1wdWIpFC8KjKA51ehA-104" edge="1">
          <mxGeometry width="50" height="50" relative="1" as="geometry">
            <mxPoint x="-280" y="1810" as="sourcePoint" />
            <mxPoint x="-115" y="1855" as="targetPoint" />
            <Array as="points">
              <mxPoint x="-260" y="1810" />
              <mxPoint x="-260" y="1830" />
            </Array>
          </mxGeometry>
        </mxCell>
        <mxCell id="TE1wdWIpFC8KjKA51ehA-102" value="" style="endArrow=classic;html=1;rounded=0;exitX=1;exitY=0.5;exitDx=0;exitDy=0;entryX=0;entryY=0.75;entryDx=0;entryDy=0;" parent="1" target="TE1wdWIpFC8KjKA51ehA-104" edge="1">
          <mxGeometry width="50" height="50" relative="1" as="geometry">
            <mxPoint x="-280" y="1870" as="sourcePoint" />
            <mxPoint x="80" y="1930" as="targetPoint" />
            <Array as="points">
              <mxPoint x="-260" y="1870" />
              <mxPoint x="-260" y="1850" />
            </Array>
          </mxGeometry>
        </mxCell>
        <mxCell id="TE1wdWIpFC8KjKA51ehA-103" value="" style="group" parent="1" vertex="1" connectable="0">
          <mxGeometry x="-240" y="1820" width="50" height="40" as="geometry" />
        </mxCell>
        <mxCell id="TE1wdWIpFC8KjKA51ehA-104" value="+" style="rounded=0;whiteSpace=wrap;html=1;" parent="TE1wdWIpFC8KjKA51ehA-103" vertex="1">
          <mxGeometry width="50" height="40" as="geometry" />
        </mxCell>
        <mxCell id="TE1wdWIpFC8KjKA51ehA-105" value="" style="triangle;whiteSpace=wrap;html=1;direction=north;" parent="TE1wdWIpFC8KjKA51ehA-103" vertex="1">
          <mxGeometry x="20" y="30" width="10" height="10" as="geometry" />
        </mxCell>
        <mxCell id="TE1wdWIpFC8KjKA51ehA-106" value="" style="rounded=0;whiteSpace=wrap;html=1;" parent="1" vertex="1">
          <mxGeometry x="-240" y="1880" width="50" height="40" as="geometry" />
        </mxCell>
        <mxCell id="TE1wdWIpFC8KjKA51ehA-107" value="" style="triangle;whiteSpace=wrap;html=1;direction=north;" parent="1" vertex="1">
          <mxGeometry x="-220" y="1910" width="10" height="10" as="geometry" />
        </mxCell>
        <mxCell id="TE1wdWIpFC8KjKA51ehA-108" value="" style="endArrow=classic;html=1;rounded=0;exitX=1;exitY=0.5;exitDx=0;exitDy=0;entryX=0;entryY=0.5;entryDx=0;entryDy=0;" parent="1" target="TE1wdWIpFC8KjKA51ehA-106" edge="1">
          <mxGeometry width="50" height="50" relative="1" as="geometry">
            <mxPoint x="-280" y="1900" as="sourcePoint" />
            <mxPoint x="-160" y="1840" as="targetPoint" />
          </mxGeometry>
        </mxCell>
        <mxCell id="TE1wdWIpFC8KjKA51ehA-109" value="" style="endArrow=classic;html=1;rounded=0;entryX=0;entryY=0.25;entryDx=0;entryDy=0;" parent="1" target="TE1wdWIpFC8KjKA51ehA-111" edge="1">
          <mxGeometry width="50" height="50" relative="1" as="geometry">
            <mxPoint x="-190" y="1760" as="sourcePoint" />
            <mxPoint x="-25" y="1805" as="targetPoint" />
            <Array as="points">
              <mxPoint x="-170" y="1760" />
              <mxPoint x="-170" y="1790" />
            </Array>
          </mxGeometry>
        </mxCell>
        <mxCell id="TE1wdWIpFC8KjKA51ehA-110" value="" style="endArrow=classic;html=1;rounded=0;exitX=1;exitY=0.5;exitDx=0;exitDy=0;entryX=0;entryY=0.75;entryDx=0;entryDy=0;" parent="1" target="TE1wdWIpFC8KjKA51ehA-111" edge="1">
          <mxGeometry width="50" height="50" relative="1" as="geometry">
            <mxPoint x="-190" y="1840" as="sourcePoint" />
            <mxPoint x="170" y="1880" as="targetPoint" />
            <Array as="points">
              <mxPoint x="-170" y="1840" />
              <mxPoint x="-170" y="1810" />
            </Array>
          </mxGeometry>
        </mxCell>
        <mxCell id="TE1wdWIpFC8KjKA51ehA-111" value="+" style="rounded=0;whiteSpace=wrap;html=1;" parent="1" vertex="1">
          <mxGeometry x="-150" y="1780" width="50" height="40" as="geometry" />
        </mxCell>
        <mxCell id="TE1wdWIpFC8KjKA51ehA-112" value="" style="triangle;whiteSpace=wrap;html=1;direction=north;" parent="1" vertex="1">
          <mxGeometry x="-130" y="1810" width="10" height="10" as="geometry" />
        </mxCell>
        <mxCell id="TE1wdWIpFC8KjKA51ehA-113" value="+" style="rounded=0;whiteSpace=wrap;html=1;" parent="1" vertex="1">
          <mxGeometry x="-60" y="1830" width="50" height="40" as="geometry" />
        </mxCell>
        <mxCell id="TE1wdWIpFC8KjKA51ehA-114" value="" style="triangle;whiteSpace=wrap;html=1;direction=north;" parent="1" vertex="1">
          <mxGeometry x="-40" y="1860" width="10" height="10" as="geometry" />
        </mxCell>
        <mxCell id="TE1wdWIpFC8KjKA51ehA-115" value="" style="endArrow=classic;html=1;rounded=0;exitX=1;exitY=0.5;exitDx=0;exitDy=0;entryX=0;entryY=0.25;entryDx=0;entryDy=0;" parent="1" target="TE1wdWIpFC8KjKA51ehA-113" edge="1">
          <mxGeometry width="50" height="50" relative="1" as="geometry">
            <mxPoint x="-100" y="1800" as="sourcePoint" />
            <mxPoint x="-120" y="1870" as="targetPoint" />
            <Array as="points">
              <mxPoint x="-80" y="1800" />
              <mxPoint x="-80" y="1840" />
            </Array>
          </mxGeometry>
        </mxCell>
        <mxCell id="TE1wdWIpFC8KjKA51ehA-116" value="" style="endArrow=classic;html=1;rounded=0;entryX=0;entryY=0.75;entryDx=0;entryDy=0;exitX=1;exitY=0.5;exitDx=0;exitDy=0;" parent="1" source="TE1wdWIpFC8KjKA51ehA-106" target="TE1wdWIpFC8KjKA51ehA-113" edge="1">
          <mxGeometry width="50" height="50" relative="1" as="geometry">
            <mxPoint x="-100" y="1960" as="sourcePoint" />
            <mxPoint x="-120" y="1870" as="targetPoint" />
            <Array as="points">
              <mxPoint x="-80" y="1900" />
              <mxPoint x="-80" y="1860" />
            </Array>
          </mxGeometry>
        </mxCell>
        <mxCell id="TE1wdWIpFC8KjKA51ehA-118" value="+" style="rounded=0;whiteSpace=wrap;html=1;" parent="1" vertex="1">
          <mxGeometry x="80" y="1680" width="50" height="40" as="geometry" />
        </mxCell>
        <mxCell id="TE1wdWIpFC8KjKA51ehA-119" value="" style="triangle;whiteSpace=wrap;html=1;direction=north;" parent="1" vertex="1">
          <mxGeometry x="100" y="1710" width="10" height="10" as="geometry" />
        </mxCell>
        <mxCell id="TE1wdWIpFC8KjKA51ehA-121" value="" style="endArrow=classic;html=1;rounded=0;exitX=1;exitY=0.5;exitDx=0;exitDy=0;entryX=0;entryY=0.25;entryDx=0;entryDy=0;" parent="1" source="TE1wdWIpFC8KjKA51ehA-41" target="TE1wdWIpFC8KjKA51ehA-118" edge="1">
          <mxGeometry width="50" height="50" relative="1" as="geometry">
            <mxPoint x="10" y="1580" as="sourcePoint" />
            <mxPoint x="50" y="1650" as="targetPoint" />
            <Array as="points">
              <mxPoint x="30" y="1560" />
              <mxPoint x="30" y="1690" />
            </Array>
          </mxGeometry>
        </mxCell>
        <mxCell id="TE1wdWIpFC8KjKA51ehA-122" value="" style="endArrow=classic;html=1;rounded=0;entryX=0;entryY=0.75;entryDx=0;entryDy=0;exitX=1;exitY=0.5;exitDx=0;exitDy=0;" parent="1" source="TE1wdWIpFC8KjKA51ehA-113" target="TE1wdWIpFC8KjKA51ehA-118" edge="1">
          <mxGeometry width="50" height="50" relative="1" as="geometry">
            <mxPoint x="-30" y="1820" as="sourcePoint" />
            <mxPoint x="100" y="1780" as="targetPoint" />
            <Array as="points">
              <mxPoint x="30" y="1850" />
              <mxPoint x="30" y="1710" />
            </Array>
          </mxGeometry>
        </mxCell>
        <mxCell id="TE1wdWIpFC8KjKA51ehA-124" value="" style="rounded=0;whiteSpace=wrap;html=1;" parent="1" vertex="1">
          <mxGeometry x="-150" y="1880" width="50" height="40" as="geometry" />
        </mxCell>
        <mxCell id="TE1wdWIpFC8KjKA51ehA-125" value="" style="triangle;whiteSpace=wrap;html=1;direction=north;" parent="1" vertex="1">
          <mxGeometry x="-130" y="1910" width="10" height="10" as="geometry" />
        </mxCell>
        <mxCell id="SQGA7LI95sxSq2oV8taF-1" value="10" style="rounded=0;whiteSpace=wrap;html=1;" vertex="1" parent="1">
          <mxGeometry x="120" y="840" width="40" height="40" as="geometry" />
        </mxCell>
        <mxCell id="SQGA7LI95sxSq2oV8taF-2" value="10" style="rounded=0;whiteSpace=wrap;html=1;" vertex="1" parent="1">
          <mxGeometry x="120" y="880" width="40" height="40" as="geometry" />
        </mxCell>
        <mxCell id="SQGA7LI95sxSq2oV8taF-3" value="10" style="rounded=0;whiteSpace=wrap;html=1;" vertex="1" parent="1">
          <mxGeometry x="120" y="920" width="40" height="40" as="geometry" />
        </mxCell>
        <mxCell id="SQGA7LI95sxSq2oV8taF-4" value="10" style="rounded=0;whiteSpace=wrap;html=1;" vertex="1" parent="1">
          <mxGeometry x="120" y="960" width="40" height="40" as="geometry" />
        </mxCell>
        <mxCell id="SQGA7LI95sxSq2oV8taF-5" value="10" style="rounded=0;whiteSpace=wrap;html=1;" vertex="1" parent="1">
          <mxGeometry x="120" y="1000" width="40" height="40" as="geometry" />
        </mxCell>
        <mxCell id="SQGA7LI95sxSq2oV8taF-6" value="10" style="rounded=0;whiteSpace=wrap;html=1;" vertex="1" parent="1">
          <mxGeometry x="120" y="1040" width="40" height="40" as="geometry" />
        </mxCell>
        <mxCell id="SQGA7LI95sxSq2oV8taF-7" value="10" style="rounded=0;whiteSpace=wrap;html=1;" vertex="1" parent="1">
          <mxGeometry x="120" y="1080" width="40" height="40" as="geometry" />
        </mxCell>
        <mxCell id="SQGA7LI95sxSq2oV8taF-8" value="10" style="rounded=0;whiteSpace=wrap;html=1;" vertex="1" parent="1">
          <mxGeometry x="120" y="1120" width="40" height="40" as="geometry" />
        </mxCell>
        <mxCell id="SQGA7LI95sxSq2oV8taF-9" value="10" style="rounded=0;whiteSpace=wrap;html=1;" vertex="1" parent="1">
          <mxGeometry x="120" y="1160" width="40" height="40" as="geometry" />
        </mxCell>
        <mxCell id="SQGA7LI95sxSq2oV8taF-10" value="10" style="rounded=0;whiteSpace=wrap;html=1;" vertex="1" parent="1">
          <mxGeometry x="120" y="1200" width="40" height="40" as="geometry" />
        </mxCell>
        <mxCell id="SQGA7LI95sxSq2oV8taF-11" value="10" style="rounded=0;whiteSpace=wrap;html=1;" vertex="1" parent="1">
          <mxGeometry x="120" y="1240" width="40" height="40" as="geometry" />
        </mxCell>
        <mxCell id="SQGA7LI95sxSq2oV8taF-12" value="10" style="rounded=0;whiteSpace=wrap;html=1;" vertex="1" parent="1">
          <mxGeometry x="120" y="1280" width="40" height="40" as="geometry" />
        </mxCell>
        <mxCell id="SQGA7LI95sxSq2oV8taF-13" value="10" style="rounded=0;whiteSpace=wrap;html=1;" vertex="1" parent="1">
          <mxGeometry x="120" y="1320" width="40" height="40" as="geometry" />
        </mxCell>
        <mxCell id="SQGA7LI95sxSq2oV8taF-14" value="20" style="rounded=0;whiteSpace=wrap;html=1;" vertex="1" parent="1">
          <mxGeometry x="160" y="840" width="40" height="40" as="geometry" />
        </mxCell>
        <mxCell id="SQGA7LI95sxSq2oV8taF-15" value="20" style="rounded=0;whiteSpace=wrap;html=1;" vertex="1" parent="1">
          <mxGeometry x="160" y="880" width="40" height="40" as="geometry" />
        </mxCell>
        <mxCell id="SQGA7LI95sxSq2oV8taF-16" value="10" style="rounded=0;whiteSpace=wrap;html=1;" vertex="1" parent="1">
          <mxGeometry x="160" y="920" width="40" height="40" as="geometry" />
        </mxCell>
        <mxCell id="SQGA7LI95sxSq2oV8taF-17" value="10" style="rounded=0;whiteSpace=wrap;html=1;" vertex="1" parent="1">
          <mxGeometry x="160" y="960" width="40" height="40" as="geometry" />
        </mxCell>
        <mxCell id="SQGA7LI95sxSq2oV8taF-18" value="10" style="rounded=0;whiteSpace=wrap;html=1;" vertex="1" parent="1">
          <mxGeometry x="160" y="1000" width="40" height="40" as="geometry" />
        </mxCell>
        <mxCell id="SQGA7LI95sxSq2oV8taF-19" value="10" style="rounded=0;whiteSpace=wrap;html=1;" vertex="1" parent="1">
          <mxGeometry x="160" y="1040" width="40" height="40" as="geometry" />
        </mxCell>
        <mxCell id="SQGA7LI95sxSq2oV8taF-20" value="10" style="rounded=0;whiteSpace=wrap;html=1;" vertex="1" parent="1">
          <mxGeometry x="160" y="1080" width="40" height="40" as="geometry" />
        </mxCell>
        <mxCell id="SQGA7LI95sxSq2oV8taF-21" value="10" style="rounded=0;whiteSpace=wrap;html=1;" vertex="1" parent="1">
          <mxGeometry x="160" y="1120" width="40" height="40" as="geometry" />
        </mxCell>
        <mxCell id="SQGA7LI95sxSq2oV8taF-22" value="10" style="rounded=0;whiteSpace=wrap;html=1;" vertex="1" parent="1">
          <mxGeometry x="160" y="1160" width="40" height="40" as="geometry" />
        </mxCell>
        <mxCell id="SQGA7LI95sxSq2oV8taF-23" value="10" style="rounded=0;whiteSpace=wrap;html=1;" vertex="1" parent="1">
          <mxGeometry x="160" y="1200" width="40" height="40" as="geometry" />
        </mxCell>
        <mxCell id="SQGA7LI95sxSq2oV8taF-24" value="10" style="rounded=0;whiteSpace=wrap;html=1;" vertex="1" parent="1">
          <mxGeometry x="160" y="1240" width="40" height="40" as="geometry" />
        </mxCell>
        <mxCell id="SQGA7LI95sxSq2oV8taF-25" value="10" style="rounded=0;whiteSpace=wrap;html=1;" vertex="1" parent="1">
          <mxGeometry x="160" y="1280" width="40" height="40" as="geometry" />
        </mxCell>
        <mxCell id="SQGA7LI95sxSq2oV8taF-26" value="10" style="rounded=0;whiteSpace=wrap;html=1;" vertex="1" parent="1">
          <mxGeometry x="160" y="1320" width="40" height="40" as="geometry" />
        </mxCell>
        <mxCell id="SQGA7LI95sxSq2oV8taF-27" value="10" style="rounded=0;whiteSpace=wrap;html=1;" vertex="1" parent="1">
          <mxGeometry x="200" y="840" width="40" height="40" as="geometry" />
        </mxCell>
        <mxCell id="SQGA7LI95sxSq2oV8taF-28" value="10" style="rounded=0;whiteSpace=wrap;html=1;" vertex="1" parent="1">
          <mxGeometry x="200" y="880" width="40" height="40" as="geometry" />
        </mxCell>
        <mxCell id="SQGA7LI95sxSq2oV8taF-29" value="10" style="rounded=0;whiteSpace=wrap;html=1;" vertex="1" parent="1">
          <mxGeometry x="200" y="920" width="40" height="40" as="geometry" />
        </mxCell>
        <mxCell id="SQGA7LI95sxSq2oV8taF-30" value="10" style="rounded=0;whiteSpace=wrap;html=1;" vertex="1" parent="1">
          <mxGeometry x="200" y="960" width="40" height="40" as="geometry" />
        </mxCell>
        <mxCell id="SQGA7LI95sxSq2oV8taF-31" value="10" style="rounded=0;whiteSpace=wrap;html=1;" vertex="1" parent="1">
          <mxGeometry x="200" y="1000" width="40" height="40" as="geometry" />
        </mxCell>
        <mxCell id="SQGA7LI95sxSq2oV8taF-32" value="10" style="rounded=0;whiteSpace=wrap;html=1;" vertex="1" parent="1">
          <mxGeometry x="200" y="1040" width="40" height="40" as="geometry" />
        </mxCell>
        <mxCell id="SQGA7LI95sxSq2oV8taF-33" value="10" style="rounded=0;whiteSpace=wrap;html=1;" vertex="1" parent="1">
          <mxGeometry x="200" y="1080" width="40" height="40" as="geometry" />
        </mxCell>
        <mxCell id="SQGA7LI95sxSq2oV8taF-34" value="10" style="rounded=0;whiteSpace=wrap;html=1;" vertex="1" parent="1">
          <mxGeometry x="200" y="1120" width="40" height="40" as="geometry" />
        </mxCell>
        <mxCell id="SQGA7LI95sxSq2oV8taF-35" value="10" style="rounded=0;whiteSpace=wrap;html=1;" vertex="1" parent="1">
          <mxGeometry x="200" y="1160" width="40" height="40" as="geometry" />
        </mxCell>
        <mxCell id="SQGA7LI95sxSq2oV8taF-36" value="10" style="rounded=0;whiteSpace=wrap;html=1;" vertex="1" parent="1">
          <mxGeometry x="200" y="1200" width="40" height="40" as="geometry" />
        </mxCell>
        <mxCell id="SQGA7LI95sxSq2oV8taF-37" value="10" style="rounded=0;whiteSpace=wrap;html=1;" vertex="1" parent="1">
          <mxGeometry x="200" y="1240" width="40" height="40" as="geometry" />
        </mxCell>
        <mxCell id="SQGA7LI95sxSq2oV8taF-38" value="10" style="rounded=0;whiteSpace=wrap;html=1;" vertex="1" parent="1">
          <mxGeometry x="200" y="1280" width="40" height="40" as="geometry" />
        </mxCell>
        <mxCell id="SQGA7LI95sxSq2oV8taF-39" value="10" style="rounded=0;whiteSpace=wrap;html=1;" vertex="1" parent="1">
          <mxGeometry x="200" y="1320" width="40" height="40" as="geometry" />
        </mxCell>
        <mxCell id="SQGA7LI95sxSq2oV8taF-40" value="10" style="rounded=0;whiteSpace=wrap;html=1;" vertex="1" parent="1">
          <mxGeometry x="240" y="840" width="40" height="40" as="geometry" />
        </mxCell>
        <mxCell id="SQGA7LI95sxSq2oV8taF-41" value="10" style="rounded=0;whiteSpace=wrap;html=1;" vertex="1" parent="1">
          <mxGeometry x="240" y="880" width="40" height="40" as="geometry" />
        </mxCell>
        <mxCell id="SQGA7LI95sxSq2oV8taF-42" value="10" style="rounded=0;whiteSpace=wrap;html=1;" vertex="1" parent="1">
          <mxGeometry x="240" y="920" width="40" height="40" as="geometry" />
        </mxCell>
        <mxCell id="SQGA7LI95sxSq2oV8taF-43" value="10" style="rounded=0;whiteSpace=wrap;html=1;" vertex="1" parent="1">
          <mxGeometry x="240" y="960" width="40" height="40" as="geometry" />
        </mxCell>
        <mxCell id="SQGA7LI95sxSq2oV8taF-44" value="10" style="rounded=0;whiteSpace=wrap;html=1;" vertex="1" parent="1">
          <mxGeometry x="240" y="1000" width="40" height="40" as="geometry" />
        </mxCell>
        <mxCell id="SQGA7LI95sxSq2oV8taF-45" value="10" style="rounded=0;whiteSpace=wrap;html=1;" vertex="1" parent="1">
          <mxGeometry x="240" y="1040" width="40" height="40" as="geometry" />
        </mxCell>
        <mxCell id="SQGA7LI95sxSq2oV8taF-46" value="10" style="rounded=0;whiteSpace=wrap;html=1;" vertex="1" parent="1">
          <mxGeometry x="240" y="1080" width="40" height="40" as="geometry" />
        </mxCell>
        <mxCell id="SQGA7LI95sxSq2oV8taF-47" value="10" style="rounded=0;whiteSpace=wrap;html=1;" vertex="1" parent="1">
          <mxGeometry x="240" y="1120" width="40" height="40" as="geometry" />
        </mxCell>
        <mxCell id="SQGA7LI95sxSq2oV8taF-48" value="10" style="rounded=0;whiteSpace=wrap;html=1;" vertex="1" parent="1">
          <mxGeometry x="240" y="1160" width="40" height="40" as="geometry" />
        </mxCell>
        <mxCell id="SQGA7LI95sxSq2oV8taF-49" value="10" style="rounded=0;whiteSpace=wrap;html=1;" vertex="1" parent="1">
          <mxGeometry x="240" y="1200" width="40" height="40" as="geometry" />
        </mxCell>
        <mxCell id="SQGA7LI95sxSq2oV8taF-50" value="10" style="rounded=0;whiteSpace=wrap;html=1;" vertex="1" parent="1">
          <mxGeometry x="240" y="1240" width="40" height="40" as="geometry" />
        </mxCell>
        <mxCell id="SQGA7LI95sxSq2oV8taF-51" value="10" style="rounded=0;whiteSpace=wrap;html=1;" vertex="1" parent="1">
          <mxGeometry x="240" y="1280" width="40" height="40" as="geometry" />
        </mxCell>
        <mxCell id="SQGA7LI95sxSq2oV8taF-52" value="10" style="rounded=0;whiteSpace=wrap;html=1;" vertex="1" parent="1">
          <mxGeometry x="240" y="1320" width="40" height="40" as="geometry" />
        </mxCell>
        <mxCell id="SQGA7LI95sxSq2oV8taF-53" value="10" style="rounded=0;whiteSpace=wrap;html=1;" vertex="1" parent="1">
          <mxGeometry x="280" y="840" width="40" height="40" as="geometry" />
        </mxCell>
        <mxCell id="SQGA7LI95sxSq2oV8taF-54" value="10" style="rounded=0;whiteSpace=wrap;html=1;" vertex="1" parent="1">
          <mxGeometry x="280" y="880" width="40" height="40" as="geometry" />
        </mxCell>
        <mxCell id="SQGA7LI95sxSq2oV8taF-55" value="10" style="rounded=0;whiteSpace=wrap;html=1;" vertex="1" parent="1">
          <mxGeometry x="280" y="920" width="40" height="40" as="geometry" />
        </mxCell>
        <mxCell id="SQGA7LI95sxSq2oV8taF-56" value="10" style="rounded=0;whiteSpace=wrap;html=1;" vertex="1" parent="1">
          <mxGeometry x="280" y="960" width="40" height="40" as="geometry" />
        </mxCell>
        <mxCell id="SQGA7LI95sxSq2oV8taF-57" value="10" style="rounded=0;whiteSpace=wrap;html=1;" vertex="1" parent="1">
          <mxGeometry x="280" y="1000" width="40" height="40" as="geometry" />
        </mxCell>
        <mxCell id="SQGA7LI95sxSq2oV8taF-58" value="10" style="rounded=0;whiteSpace=wrap;html=1;" vertex="1" parent="1">
          <mxGeometry x="280" y="1040" width="40" height="40" as="geometry" />
        </mxCell>
        <mxCell id="SQGA7LI95sxSq2oV8taF-59" value="10" style="rounded=0;whiteSpace=wrap;html=1;" vertex="1" parent="1">
          <mxGeometry x="280" y="1080" width="40" height="40" as="geometry" />
        </mxCell>
        <mxCell id="SQGA7LI95sxSq2oV8taF-60" value="10" style="rounded=0;whiteSpace=wrap;html=1;" vertex="1" parent="1">
          <mxGeometry x="280" y="1120" width="40" height="40" as="geometry" />
        </mxCell>
        <mxCell id="SQGA7LI95sxSq2oV8taF-61" value="10" style="rounded=0;whiteSpace=wrap;html=1;" vertex="1" parent="1">
          <mxGeometry x="280" y="1160" width="40" height="40" as="geometry" />
        </mxCell>
        <mxCell id="SQGA7LI95sxSq2oV8taF-62" value="10" style="rounded=0;whiteSpace=wrap;html=1;" vertex="1" parent="1">
          <mxGeometry x="280" y="1200" width="40" height="40" as="geometry" />
        </mxCell>
        <mxCell id="SQGA7LI95sxSq2oV8taF-63" value="10" style="rounded=0;whiteSpace=wrap;html=1;" vertex="1" parent="1">
          <mxGeometry x="280" y="1240" width="40" height="40" as="geometry" />
        </mxCell>
        <mxCell id="SQGA7LI95sxSq2oV8taF-64" value="10" style="rounded=0;whiteSpace=wrap;html=1;" vertex="1" parent="1">
          <mxGeometry x="280" y="1280" width="40" height="40" as="geometry" />
        </mxCell>
        <mxCell id="SQGA7LI95sxSq2oV8taF-65" value="10" style="rounded=0;whiteSpace=wrap;html=1;" vertex="1" parent="1">
          <mxGeometry x="280" y="1320" width="40" height="40" as="geometry" />
        </mxCell>
        <mxCell id="SQGA7LI95sxSq2oV8taF-66" value="10" style="rounded=0;whiteSpace=wrap;html=1;" vertex="1" parent="1">
          <mxGeometry x="320" y="840" width="40" height="40" as="geometry" />
        </mxCell>
        <mxCell id="SQGA7LI95sxSq2oV8taF-67" value="10" style="rounded=0;whiteSpace=wrap;html=1;" vertex="1" parent="1">
          <mxGeometry x="320" y="880" width="40" height="40" as="geometry" />
        </mxCell>
        <mxCell id="SQGA7LI95sxSq2oV8taF-68" value="10" style="rounded=0;whiteSpace=wrap;html=1;" vertex="1" parent="1">
          <mxGeometry x="320" y="920" width="40" height="40" as="geometry" />
        </mxCell>
        <mxCell id="SQGA7LI95sxSq2oV8taF-69" value="10" style="rounded=0;whiteSpace=wrap;html=1;" vertex="1" parent="1">
          <mxGeometry x="320" y="960" width="40" height="40" as="geometry" />
        </mxCell>
        <mxCell id="SQGA7LI95sxSq2oV8taF-70" value="10" style="rounded=0;whiteSpace=wrap;html=1;" vertex="1" parent="1">
          <mxGeometry x="320" y="1000" width="40" height="40" as="geometry" />
        </mxCell>
        <mxCell id="SQGA7LI95sxSq2oV8taF-71" value="10" style="rounded=0;whiteSpace=wrap;html=1;" vertex="1" parent="1">
          <mxGeometry x="320" y="1040" width="40" height="40" as="geometry" />
        </mxCell>
        <mxCell id="SQGA7LI95sxSq2oV8taF-72" value="10" style="rounded=0;whiteSpace=wrap;html=1;" vertex="1" parent="1">
          <mxGeometry x="320" y="1080" width="40" height="40" as="geometry" />
        </mxCell>
        <mxCell id="SQGA7LI95sxSq2oV8taF-73" value="10" style="rounded=0;whiteSpace=wrap;html=1;" vertex="1" parent="1">
          <mxGeometry x="320" y="1120" width="40" height="40" as="geometry" />
        </mxCell>
        <mxCell id="SQGA7LI95sxSq2oV8taF-74" value="10" style="rounded=0;whiteSpace=wrap;html=1;" vertex="1" parent="1">
          <mxGeometry x="320" y="1160" width="40" height="40" as="geometry" />
        </mxCell>
        <mxCell id="SQGA7LI95sxSq2oV8taF-75" value="10" style="rounded=0;whiteSpace=wrap;html=1;" vertex="1" parent="1">
          <mxGeometry x="320" y="1200" width="40" height="40" as="geometry" />
        </mxCell>
        <mxCell id="SQGA7LI95sxSq2oV8taF-76" value="10" style="rounded=0;whiteSpace=wrap;html=1;" vertex="1" parent="1">
          <mxGeometry x="320" y="1240" width="40" height="40" as="geometry" />
        </mxCell>
        <mxCell id="SQGA7LI95sxSq2oV8taF-77" value="10" style="rounded=0;whiteSpace=wrap;html=1;" vertex="1" parent="1">
          <mxGeometry x="320" y="1280" width="40" height="40" as="geometry" />
        </mxCell>
        <mxCell id="SQGA7LI95sxSq2oV8taF-78" value="10" style="rounded=0;whiteSpace=wrap;html=1;" vertex="1" parent="1">
          <mxGeometry x="320" y="1320" width="40" height="40" as="geometry" />
        </mxCell>
        <mxCell id="SQGA7LI95sxSq2oV8taF-79" value="10" style="rounded=0;whiteSpace=wrap;html=1;" vertex="1" parent="1">
          <mxGeometry x="360" y="840" width="40" height="40" as="geometry" />
        </mxCell>
        <mxCell id="SQGA7LI95sxSq2oV8taF-80" value="10" style="rounded=0;whiteSpace=wrap;html=1;" vertex="1" parent="1">
          <mxGeometry x="360" y="880" width="40" height="40" as="geometry" />
        </mxCell>
        <mxCell id="SQGA7LI95sxSq2oV8taF-81" value="10" style="rounded=0;whiteSpace=wrap;html=1;" vertex="1" parent="1">
          <mxGeometry x="360" y="920" width="40" height="40" as="geometry" />
        </mxCell>
        <mxCell id="SQGA7LI95sxSq2oV8taF-82" value="10" style="rounded=0;whiteSpace=wrap;html=1;" vertex="1" parent="1">
          <mxGeometry x="360" y="960" width="40" height="40" as="geometry" />
        </mxCell>
        <mxCell id="SQGA7LI95sxSq2oV8taF-83" value="10" style="rounded=0;whiteSpace=wrap;html=1;" vertex="1" parent="1">
          <mxGeometry x="360" y="1000" width="40" height="40" as="geometry" />
        </mxCell>
        <mxCell id="SQGA7LI95sxSq2oV8taF-84" value="10" style="rounded=0;whiteSpace=wrap;html=1;" vertex="1" parent="1">
          <mxGeometry x="360" y="1040" width="40" height="40" as="geometry" />
        </mxCell>
        <mxCell id="SQGA7LI95sxSq2oV8taF-85" value="10" style="rounded=0;whiteSpace=wrap;html=1;" vertex="1" parent="1">
          <mxGeometry x="360" y="1080" width="40" height="40" as="geometry" />
        </mxCell>
        <mxCell id="SQGA7LI95sxSq2oV8taF-86" value="10" style="rounded=0;whiteSpace=wrap;html=1;" vertex="1" parent="1">
          <mxGeometry x="360" y="1120" width="40" height="40" as="geometry" />
        </mxCell>
        <mxCell id="SQGA7LI95sxSq2oV8taF-87" value="10" style="rounded=0;whiteSpace=wrap;html=1;" vertex="1" parent="1">
          <mxGeometry x="360" y="1160" width="40" height="40" as="geometry" />
        </mxCell>
        <mxCell id="SQGA7LI95sxSq2oV8taF-88" value="10" style="rounded=0;whiteSpace=wrap;html=1;" vertex="1" parent="1">
          <mxGeometry x="360" y="1200" width="40" height="40" as="geometry" />
        </mxCell>
        <mxCell id="SQGA7LI95sxSq2oV8taF-89" value="10" style="rounded=0;whiteSpace=wrap;html=1;" vertex="1" parent="1">
          <mxGeometry x="360" y="1240" width="40" height="40" as="geometry" />
        </mxCell>
        <mxCell id="SQGA7LI95sxSq2oV8taF-90" value="10" style="rounded=0;whiteSpace=wrap;html=1;" vertex="1" parent="1">
          <mxGeometry x="360" y="1280" width="40" height="40" as="geometry" />
        </mxCell>
        <mxCell id="SQGA7LI95sxSq2oV8taF-91" value="10" style="rounded=0;whiteSpace=wrap;html=1;" vertex="1" parent="1">
          <mxGeometry x="360" y="1320" width="40" height="40" as="geometry" />
        </mxCell>
        <mxCell id="SQGA7LI95sxSq2oV8taF-92" value="10" style="rounded=0;whiteSpace=wrap;html=1;" vertex="1" parent="1">
          <mxGeometry x="400" y="840" width="40" height="40" as="geometry" />
        </mxCell>
        <mxCell id="SQGA7LI95sxSq2oV8taF-93" value="10" style="rounded=0;whiteSpace=wrap;html=1;" vertex="1" parent="1">
          <mxGeometry x="400" y="880" width="40" height="40" as="geometry" />
        </mxCell>
        <mxCell id="SQGA7LI95sxSq2oV8taF-94" value="10" style="rounded=0;whiteSpace=wrap;html=1;" vertex="1" parent="1">
          <mxGeometry x="400" y="920" width="40" height="40" as="geometry" />
        </mxCell>
        <mxCell id="SQGA7LI95sxSq2oV8taF-95" value="10" style="rounded=0;whiteSpace=wrap;html=1;" vertex="1" parent="1">
          <mxGeometry x="400" y="960" width="40" height="40" as="geometry" />
        </mxCell>
        <mxCell id="SQGA7LI95sxSq2oV8taF-96" value="10" style="rounded=0;whiteSpace=wrap;html=1;" vertex="1" parent="1">
          <mxGeometry x="400" y="1000" width="40" height="40" as="geometry" />
        </mxCell>
        <mxCell id="SQGA7LI95sxSq2oV8taF-97" value="10" style="rounded=0;whiteSpace=wrap;html=1;" vertex="1" parent="1">
          <mxGeometry x="400" y="1040" width="40" height="40" as="geometry" />
        </mxCell>
        <mxCell id="SQGA7LI95sxSq2oV8taF-98" value="10" style="rounded=0;whiteSpace=wrap;html=1;" vertex="1" parent="1">
          <mxGeometry x="400" y="1080" width="40" height="40" as="geometry" />
        </mxCell>
        <mxCell id="SQGA7LI95sxSq2oV8taF-99" value="10" style="rounded=0;whiteSpace=wrap;html=1;" vertex="1" parent="1">
          <mxGeometry x="400" y="1120" width="40" height="40" as="geometry" />
        </mxCell>
        <mxCell id="SQGA7LI95sxSq2oV8taF-100" value="10" style="rounded=0;whiteSpace=wrap;html=1;" vertex="1" parent="1">
          <mxGeometry x="400" y="1160" width="40" height="40" as="geometry" />
        </mxCell>
        <mxCell id="SQGA7LI95sxSq2oV8taF-101" value="10" style="rounded=0;whiteSpace=wrap;html=1;" vertex="1" parent="1">
          <mxGeometry x="400" y="1200" width="40" height="40" as="geometry" />
        </mxCell>
        <mxCell id="SQGA7LI95sxSq2oV8taF-102" value="10" style="rounded=0;whiteSpace=wrap;html=1;" vertex="1" parent="1">
          <mxGeometry x="400" y="1240" width="40" height="40" as="geometry" />
        </mxCell>
        <mxCell id="SQGA7LI95sxSq2oV8taF-103" value="10" style="rounded=0;whiteSpace=wrap;html=1;" vertex="1" parent="1">
          <mxGeometry x="400" y="1280" width="40" height="40" as="geometry" />
        </mxCell>
        <mxCell id="SQGA7LI95sxSq2oV8taF-104" value="10" style="rounded=0;whiteSpace=wrap;html=1;" vertex="1" parent="1">
          <mxGeometry x="400" y="1320" width="40" height="40" as="geometry" />
        </mxCell>
        <mxCell id="SQGA7LI95sxSq2oV8taF-105" value="10" style="rounded=0;whiteSpace=wrap;html=1;" vertex="1" parent="1">
          <mxGeometry x="440" y="840" width="40" height="40" as="geometry" />
        </mxCell>
        <mxCell id="SQGA7LI95sxSq2oV8taF-106" value="10" style="rounded=0;whiteSpace=wrap;html=1;" vertex="1" parent="1">
          <mxGeometry x="440" y="880" width="40" height="40" as="geometry" />
        </mxCell>
        <mxCell id="SQGA7LI95sxSq2oV8taF-107" value="10" style="rounded=0;whiteSpace=wrap;html=1;" vertex="1" parent="1">
          <mxGeometry x="440" y="920" width="40" height="40" as="geometry" />
        </mxCell>
        <mxCell id="SQGA7LI95sxSq2oV8taF-108" value="10" style="rounded=0;whiteSpace=wrap;html=1;" vertex="1" parent="1">
          <mxGeometry x="440" y="960" width="40" height="40" as="geometry" />
        </mxCell>
        <mxCell id="SQGA7LI95sxSq2oV8taF-109" value="10" style="rounded=0;whiteSpace=wrap;html=1;" vertex="1" parent="1">
          <mxGeometry x="440" y="1000" width="40" height="40" as="geometry" />
        </mxCell>
        <mxCell id="SQGA7LI95sxSq2oV8taF-110" value="10" style="rounded=0;whiteSpace=wrap;html=1;" vertex="1" parent="1">
          <mxGeometry x="440" y="1040" width="40" height="40" as="geometry" />
        </mxCell>
        <mxCell id="SQGA7LI95sxSq2oV8taF-111" value="10" style="rounded=0;whiteSpace=wrap;html=1;" vertex="1" parent="1">
          <mxGeometry x="440" y="1080" width="40" height="40" as="geometry" />
        </mxCell>
        <mxCell id="SQGA7LI95sxSq2oV8taF-112" value="10" style="rounded=0;whiteSpace=wrap;html=1;" vertex="1" parent="1">
          <mxGeometry x="440" y="1120" width="40" height="40" as="geometry" />
        </mxCell>
        <mxCell id="SQGA7LI95sxSq2oV8taF-113" value="10" style="rounded=0;whiteSpace=wrap;html=1;" vertex="1" parent="1">
          <mxGeometry x="440" y="1160" width="40" height="40" as="geometry" />
        </mxCell>
        <mxCell id="SQGA7LI95sxSq2oV8taF-114" value="10" style="rounded=0;whiteSpace=wrap;html=1;" vertex="1" parent="1">
          <mxGeometry x="440" y="1200" width="40" height="40" as="geometry" />
        </mxCell>
        <mxCell id="SQGA7LI95sxSq2oV8taF-115" value="10" style="rounded=0;whiteSpace=wrap;html=1;" vertex="1" parent="1">
          <mxGeometry x="440" y="1240" width="40" height="40" as="geometry" />
        </mxCell>
        <mxCell id="SQGA7LI95sxSq2oV8taF-116" value="10" style="rounded=0;whiteSpace=wrap;html=1;" vertex="1" parent="1">
          <mxGeometry x="440" y="1280" width="40" height="40" as="geometry" />
        </mxCell>
        <mxCell id="SQGA7LI95sxSq2oV8taF-117" value="10" style="rounded=0;whiteSpace=wrap;html=1;" vertex="1" parent="1">
          <mxGeometry x="440" y="1320" width="40" height="40" as="geometry" />
        </mxCell>
        <mxCell id="SQGA7LI95sxSq2oV8taF-118" value="10" style="rounded=0;whiteSpace=wrap;html=1;" vertex="1" parent="1">
          <mxGeometry x="480" y="840" width="40" height="40" as="geometry" />
        </mxCell>
        <mxCell id="SQGA7LI95sxSq2oV8taF-119" value="10" style="rounded=0;whiteSpace=wrap;html=1;" vertex="1" parent="1">
          <mxGeometry x="480" y="880" width="40" height="40" as="geometry" />
        </mxCell>
        <mxCell id="SQGA7LI95sxSq2oV8taF-120" value="10" style="rounded=0;whiteSpace=wrap;html=1;" vertex="1" parent="1">
          <mxGeometry x="480" y="920" width="40" height="40" as="geometry" />
        </mxCell>
        <mxCell id="SQGA7LI95sxSq2oV8taF-121" value="10" style="rounded=0;whiteSpace=wrap;html=1;" vertex="1" parent="1">
          <mxGeometry x="480" y="960" width="40" height="40" as="geometry" />
        </mxCell>
        <mxCell id="SQGA7LI95sxSq2oV8taF-122" value="10" style="rounded=0;whiteSpace=wrap;html=1;" vertex="1" parent="1">
          <mxGeometry x="480" y="1000" width="40" height="40" as="geometry" />
        </mxCell>
        <mxCell id="SQGA7LI95sxSq2oV8taF-123" value="10" style="rounded=0;whiteSpace=wrap;html=1;" vertex="1" parent="1">
          <mxGeometry x="480" y="1040" width="40" height="40" as="geometry" />
        </mxCell>
        <mxCell id="SQGA7LI95sxSq2oV8taF-124" value="10" style="rounded=0;whiteSpace=wrap;html=1;" vertex="1" parent="1">
          <mxGeometry x="480" y="1080" width="40" height="40" as="geometry" />
        </mxCell>
        <mxCell id="SQGA7LI95sxSq2oV8taF-125" value="10" style="rounded=0;whiteSpace=wrap;html=1;" vertex="1" parent="1">
          <mxGeometry x="480" y="1120" width="40" height="40" as="geometry" />
        </mxCell>
        <mxCell id="SQGA7LI95sxSq2oV8taF-126" value="10" style="rounded=0;whiteSpace=wrap;html=1;" vertex="1" parent="1">
          <mxGeometry x="480" y="1160" width="40" height="40" as="geometry" />
        </mxCell>
        <mxCell id="SQGA7LI95sxSq2oV8taF-127" value="10" style="rounded=0;whiteSpace=wrap;html=1;" vertex="1" parent="1">
          <mxGeometry x="480" y="1200" width="40" height="40" as="geometry" />
        </mxCell>
        <mxCell id="SQGA7LI95sxSq2oV8taF-128" value="10" style="rounded=0;whiteSpace=wrap;html=1;" vertex="1" parent="1">
          <mxGeometry x="480" y="1240" width="40" height="40" as="geometry" />
        </mxCell>
        <mxCell id="SQGA7LI95sxSq2oV8taF-129" value="10" style="rounded=0;whiteSpace=wrap;html=1;" vertex="1" parent="1">
          <mxGeometry x="480" y="1280" width="40" height="40" as="geometry" />
        </mxCell>
        <mxCell id="SQGA7LI95sxSq2oV8taF-130" value="10" style="rounded=0;whiteSpace=wrap;html=1;" vertex="1" parent="1">
          <mxGeometry x="480" y="1320" width="40" height="40" as="geometry" />
        </mxCell>
        <mxCell id="SQGA7LI95sxSq2oV8taF-131" value="10" style="rounded=0;whiteSpace=wrap;html=1;" vertex="1" parent="1">
          <mxGeometry x="520" y="840" width="40" height="40" as="geometry" />
        </mxCell>
        <mxCell id="SQGA7LI95sxSq2oV8taF-132" value="10" style="rounded=0;whiteSpace=wrap;html=1;" vertex="1" parent="1">
          <mxGeometry x="520" y="880" width="40" height="40" as="geometry" />
        </mxCell>
        <mxCell id="SQGA7LI95sxSq2oV8taF-133" value="10" style="rounded=0;whiteSpace=wrap;html=1;" vertex="1" parent="1">
          <mxGeometry x="520" y="920" width="40" height="40" as="geometry" />
        </mxCell>
        <mxCell id="SQGA7LI95sxSq2oV8taF-134" value="10" style="rounded=0;whiteSpace=wrap;html=1;" vertex="1" parent="1">
          <mxGeometry x="520" y="960" width="40" height="40" as="geometry" />
        </mxCell>
        <mxCell id="SQGA7LI95sxSq2oV8taF-135" value="10" style="rounded=0;whiteSpace=wrap;html=1;" vertex="1" parent="1">
          <mxGeometry x="520" y="1000" width="40" height="40" as="geometry" />
        </mxCell>
        <mxCell id="SQGA7LI95sxSq2oV8taF-136" value="10" style="rounded=0;whiteSpace=wrap;html=1;" vertex="1" parent="1">
          <mxGeometry x="520" y="1040" width="40" height="40" as="geometry" />
        </mxCell>
        <mxCell id="SQGA7LI95sxSq2oV8taF-137" value="10" style="rounded=0;whiteSpace=wrap;html=1;" vertex="1" parent="1">
          <mxGeometry x="520" y="1080" width="40" height="40" as="geometry" />
        </mxCell>
        <mxCell id="SQGA7LI95sxSq2oV8taF-138" value="10" style="rounded=0;whiteSpace=wrap;html=1;" vertex="1" parent="1">
          <mxGeometry x="520" y="1120" width="40" height="40" as="geometry" />
        </mxCell>
        <mxCell id="SQGA7LI95sxSq2oV8taF-139" value="10" style="rounded=0;whiteSpace=wrap;html=1;" vertex="1" parent="1">
          <mxGeometry x="520" y="1160" width="40" height="40" as="geometry" />
        </mxCell>
        <mxCell id="SQGA7LI95sxSq2oV8taF-140" value="10" style="rounded=0;whiteSpace=wrap;html=1;" vertex="1" parent="1">
          <mxGeometry x="520" y="1200" width="40" height="40" as="geometry" />
        </mxCell>
        <mxCell id="SQGA7LI95sxSq2oV8taF-141" value="10" style="rounded=0;whiteSpace=wrap;html=1;" vertex="1" parent="1">
          <mxGeometry x="520" y="1240" width="40" height="40" as="geometry" />
        </mxCell>
        <mxCell id="SQGA7LI95sxSq2oV8taF-142" value="10" style="rounded=0;whiteSpace=wrap;html=1;" vertex="1" parent="1">
          <mxGeometry x="520" y="1280" width="40" height="40" as="geometry" />
        </mxCell>
        <mxCell id="SQGA7LI95sxSq2oV8taF-143" value="10" style="rounded=0;whiteSpace=wrap;html=1;" vertex="1" parent="1">
          <mxGeometry x="520" y="1320" width="40" height="40" as="geometry" />
        </mxCell>
        <mxCell id="SQGA7LI95sxSq2oV8taF-144" value="10" style="rounded=0;whiteSpace=wrap;html=1;" vertex="1" parent="1">
          <mxGeometry x="560" y="840" width="40" height="40" as="geometry" />
        </mxCell>
        <mxCell id="SQGA7LI95sxSq2oV8taF-145" value="10" style="rounded=0;whiteSpace=wrap;html=1;" vertex="1" parent="1">
          <mxGeometry x="560" y="880" width="40" height="40" as="geometry" />
        </mxCell>
        <mxCell id="SQGA7LI95sxSq2oV8taF-146" value="10" style="rounded=0;whiteSpace=wrap;html=1;" vertex="1" parent="1">
          <mxGeometry x="560" y="920" width="40" height="40" as="geometry" />
        </mxCell>
        <mxCell id="SQGA7LI95sxSq2oV8taF-147" value="10" style="rounded=0;whiteSpace=wrap;html=1;" vertex="1" parent="1">
          <mxGeometry x="560" y="960" width="40" height="40" as="geometry" />
        </mxCell>
        <mxCell id="SQGA7LI95sxSq2oV8taF-148" value="10" style="rounded=0;whiteSpace=wrap;html=1;" vertex="1" parent="1">
          <mxGeometry x="560" y="1000" width="40" height="40" as="geometry" />
        </mxCell>
        <mxCell id="SQGA7LI95sxSq2oV8taF-149" value="10" style="rounded=0;whiteSpace=wrap;html=1;" vertex="1" parent="1">
          <mxGeometry x="560" y="1040" width="40" height="40" as="geometry" />
        </mxCell>
        <mxCell id="SQGA7LI95sxSq2oV8taF-150" value="10" style="rounded=0;whiteSpace=wrap;html=1;" vertex="1" parent="1">
          <mxGeometry x="560" y="1080" width="40" height="40" as="geometry" />
        </mxCell>
        <mxCell id="SQGA7LI95sxSq2oV8taF-151" value="10" style="rounded=0;whiteSpace=wrap;html=1;" vertex="1" parent="1">
          <mxGeometry x="560" y="1120" width="40" height="40" as="geometry" />
        </mxCell>
        <mxCell id="SQGA7LI95sxSq2oV8taF-152" value="10" style="rounded=0;whiteSpace=wrap;html=1;" vertex="1" parent="1">
          <mxGeometry x="560" y="1160" width="40" height="40" as="geometry" />
        </mxCell>
        <mxCell id="SQGA7LI95sxSq2oV8taF-153" value="10" style="rounded=0;whiteSpace=wrap;html=1;" vertex="1" parent="1">
          <mxGeometry x="560" y="1200" width="40" height="40" as="geometry" />
        </mxCell>
        <mxCell id="SQGA7LI95sxSq2oV8taF-154" value="10" style="rounded=0;whiteSpace=wrap;html=1;" vertex="1" parent="1">
          <mxGeometry x="560" y="1240" width="40" height="40" as="geometry" />
        </mxCell>
        <mxCell id="SQGA7LI95sxSq2oV8taF-155" value="10" style="rounded=0;whiteSpace=wrap;html=1;" vertex="1" parent="1">
          <mxGeometry x="560" y="1280" width="40" height="40" as="geometry" />
        </mxCell>
        <mxCell id="SQGA7LI95sxSq2oV8taF-156" value="10" style="rounded=0;whiteSpace=wrap;html=1;" vertex="1" parent="1">
          <mxGeometry x="560" y="1320" width="40" height="40" as="geometry" />
        </mxCell>
        <mxCell id="SQGA7LI95sxSq2oV8taF-157" value="10" style="rounded=0;whiteSpace=wrap;html=1;" vertex="1" parent="1">
          <mxGeometry x="600" y="840" width="40" height="40" as="geometry" />
        </mxCell>
        <mxCell id="SQGA7LI95sxSq2oV8taF-158" value="10" style="rounded=0;whiteSpace=wrap;html=1;" vertex="1" parent="1">
          <mxGeometry x="600" y="880" width="40" height="40" as="geometry" />
        </mxCell>
        <mxCell id="SQGA7LI95sxSq2oV8taF-159" value="10" style="rounded=0;whiteSpace=wrap;html=1;" vertex="1" parent="1">
          <mxGeometry x="600" y="920" width="40" height="40" as="geometry" />
        </mxCell>
        <mxCell id="SQGA7LI95sxSq2oV8taF-160" value="10" style="rounded=0;whiteSpace=wrap;html=1;" vertex="1" parent="1">
          <mxGeometry x="600" y="960" width="40" height="40" as="geometry" />
        </mxCell>
        <mxCell id="SQGA7LI95sxSq2oV8taF-161" value="10" style="rounded=0;whiteSpace=wrap;html=1;" vertex="1" parent="1">
          <mxGeometry x="600" y="1000" width="40" height="40" as="geometry" />
        </mxCell>
        <mxCell id="SQGA7LI95sxSq2oV8taF-162" value="10" style="rounded=0;whiteSpace=wrap;html=1;" vertex="1" parent="1">
          <mxGeometry x="600" y="1040" width="40" height="40" as="geometry" />
        </mxCell>
        <mxCell id="SQGA7LI95sxSq2oV8taF-163" value="10" style="rounded=0;whiteSpace=wrap;html=1;" vertex="1" parent="1">
          <mxGeometry x="600" y="1080" width="40" height="40" as="geometry" />
        </mxCell>
        <mxCell id="SQGA7LI95sxSq2oV8taF-164" value="10" style="rounded=0;whiteSpace=wrap;html=1;" vertex="1" parent="1">
          <mxGeometry x="600" y="1120" width="40" height="40" as="geometry" />
        </mxCell>
        <mxCell id="SQGA7LI95sxSq2oV8taF-165" value="10" style="rounded=0;whiteSpace=wrap;html=1;" vertex="1" parent="1">
          <mxGeometry x="600" y="1160" width="40" height="40" as="geometry" />
        </mxCell>
        <mxCell id="SQGA7LI95sxSq2oV8taF-166" value="10" style="rounded=0;whiteSpace=wrap;html=1;" vertex="1" parent="1">
          <mxGeometry x="600" y="1200" width="40" height="40" as="geometry" />
        </mxCell>
        <mxCell id="SQGA7LI95sxSq2oV8taF-167" value="10" style="rounded=0;whiteSpace=wrap;html=1;" vertex="1" parent="1">
          <mxGeometry x="600" y="1240" width="40" height="40" as="geometry" />
        </mxCell>
        <mxCell id="SQGA7LI95sxSq2oV8taF-168" value="10" style="rounded=0;whiteSpace=wrap;html=1;" vertex="1" parent="1">
          <mxGeometry x="600" y="1280" width="40" height="40" as="geometry" />
        </mxCell>
        <mxCell id="SQGA7LI95sxSq2oV8taF-169" value="10" style="rounded=0;whiteSpace=wrap;html=1;" vertex="1" parent="1">
          <mxGeometry x="600" y="1320" width="40" height="40" as="geometry" />
        </mxCell>
        <mxCell id="SQGA7LI95sxSq2oV8taF-170" value="10" style="rounded=0;whiteSpace=wrap;html=1;" vertex="1" parent="1">
          <mxGeometry x="640" y="840" width="40" height="40" as="geometry" />
        </mxCell>
        <mxCell id="SQGA7LI95sxSq2oV8taF-171" value="10" style="rounded=0;whiteSpace=wrap;html=1;" vertex="1" parent="1">
          <mxGeometry x="640" y="880" width="40" height="40" as="geometry" />
        </mxCell>
        <mxCell id="SQGA7LI95sxSq2oV8taF-172" value="10" style="rounded=0;whiteSpace=wrap;html=1;" vertex="1" parent="1">
          <mxGeometry x="640" y="920" width="40" height="40" as="geometry" />
        </mxCell>
        <mxCell id="SQGA7LI95sxSq2oV8taF-173" value="10" style="rounded=0;whiteSpace=wrap;html=1;" vertex="1" parent="1">
          <mxGeometry x="640" y="960" width="40" height="40" as="geometry" />
        </mxCell>
        <mxCell id="SQGA7LI95sxSq2oV8taF-174" value="10" style="rounded=0;whiteSpace=wrap;html=1;" vertex="1" parent="1">
          <mxGeometry x="640" y="1000" width="40" height="40" as="geometry" />
        </mxCell>
        <mxCell id="SQGA7LI95sxSq2oV8taF-175" value="10" style="rounded=0;whiteSpace=wrap;html=1;" vertex="1" parent="1">
          <mxGeometry x="640" y="1040" width="40" height="40" as="geometry" />
        </mxCell>
        <mxCell id="SQGA7LI95sxSq2oV8taF-176" value="10" style="rounded=0;whiteSpace=wrap;html=1;" vertex="1" parent="1">
          <mxGeometry x="640" y="1080" width="40" height="40" as="geometry" />
        </mxCell>
        <mxCell id="SQGA7LI95sxSq2oV8taF-177" value="10" style="rounded=0;whiteSpace=wrap;html=1;" vertex="1" parent="1">
          <mxGeometry x="640" y="1120" width="40" height="40" as="geometry" />
        </mxCell>
        <mxCell id="SQGA7LI95sxSq2oV8taF-178" value="10" style="rounded=0;whiteSpace=wrap;html=1;" vertex="1" parent="1">
          <mxGeometry x="640" y="1160" width="40" height="40" as="geometry" />
        </mxCell>
        <mxCell id="SQGA7LI95sxSq2oV8taF-179" value="10" style="rounded=0;whiteSpace=wrap;html=1;" vertex="1" parent="1">
          <mxGeometry x="640" y="1200" width="40" height="40" as="geometry" />
        </mxCell>
        <mxCell id="SQGA7LI95sxSq2oV8taF-180" value="10" style="rounded=0;whiteSpace=wrap;html=1;" vertex="1" parent="1">
          <mxGeometry x="640" y="1240" width="40" height="40" as="geometry" />
        </mxCell>
        <mxCell id="SQGA7LI95sxSq2oV8taF-181" value="10" style="rounded=0;whiteSpace=wrap;html=1;" vertex="1" parent="1">
          <mxGeometry x="640" y="1280" width="40" height="40" as="geometry" />
        </mxCell>
        <mxCell id="SQGA7LI95sxSq2oV8taF-182" value="10" style="rounded=0;whiteSpace=wrap;html=1;" vertex="1" parent="1">
          <mxGeometry x="640" y="1320" width="40" height="40" as="geometry" />
        </mxCell>
      </root>
    </mxGraphModel>
  </diagram>
</mxfile>
